<svg id="Layer_1" data-name="Layer 1" xmlns="http://www.w3.org/2000/svg" viewBox="0 0 1280 474"><defs><style>.cls-1{fill:#fff;}.cls-2{fill:#46acdb;}</style></defs><path class="cls-1" d="M1280,473.54c-36,0-69.5-.15-103,.12-7.64.06-11.44-2.92-14.22-10Q1072.3,233.85,981.52,4.17c-.24-.6.07-1.42.25-3.93,33.46,0,67.09.45,100.7-.23,12.72-.26,12.91,9.31,15.84,16.66q73.89,185.64,147.5,371.41C1256.84,415.86,1268,443.59,1280,473.54Z"/><path class="cls-1" d="M86.12,0V387.88H316.21V474H0V0Z"/><path class="cls-1" d="M500.28,299.79a105.88,105.88,0,0,0,5.26,33.2,80.89,80.89,0,0,0,15.78,28.26A77.44,77.44,0,0,0,547,380.65q15.12,7.25,34.84,7.23a73.7,73.7,0,0,0,30.9-6.57,81.17,81.17,0,0,0,25-17.42,79.87,79.87,0,0,0,16.44-25A76.77,76.77,0,0,0,660,309V0h86.12V309A156,156,0,0,1,733,372.43,177.24,177.24,0,0,1,697.82,425a162.91,162.91,0,0,1-51.93,35.83A155.88,155.88,0,0,1,582.45,474q-36.15,0-67.05-13.8a167.36,167.36,0,0,1-88.75-92.7q-12.5-31.56-11.83-67.71Z"/><path class="cls-2" d="M792,472.32s36.4,1.68,47.17,1.68c56.25,0,56.18,0,74.62-52,5.55-15.61,11.22-19.13,27.79-13.68,42.13,13.85,85.46,14.62,129.7,9.36,12.45-1.49,17.29-7,12.27-22.91l-15.6-51.26c-4.52-15.14-8.81-17.37-28.22-17.37-22.85.62-42.55-2-63.17-8.67-12.61-4.09-19-9.43-17-20.53l36.72-98.84c2.26-6.24,4-12.47,1.16-19.54C983,142.9,968.87,107.05,952.21,65.07Z"/></svg>